{"title":"Avan.Ivan.240p.New.LotusFiveStar.DVDRIP.","uid":6553319,"size":359075731,"categoryP":"video","categoryS":"movies","magnet":"?xt=urn:btih:510e2530962fedbf04a61cddc39c3d32dda62358&amp;dn=Avan.Ivan.240p.New.LotusFiveStar.DVDRIP.&amp;tr=udp%3A%2F%2Ftracker.openbittorrent.com%3A80&amp;tr=udp%3A%2F%2Fopen.demonii.com%3A1337&amp;tr=udp%3A%2F%2Ftracker.coppersurfer.tk%3A6969&amp;tr=udp%3A%2F%2Fexodus.desync.com%3A6969","seeders":0,"leechers":1,"uploader":"eddy492","files":4,"time":1311184433,"description":"Format                           : AVI\nFormat/Info                      : Audio Video Interleave\nFile size                        : 342 MiB\nDuration                         : 2h 3mn\nOveral bit rate                  : 388 Kbps\nWriting application              : MEncoder Sherpya-SVN-r27811-4.2.5\nWriting library                  : MPlayer\n\nVideo\nFormat                           : MPEG-4 Visual\nFormat profile                   : Simple@L3\nFormat settings, BVOP            : No\nFormat settings, QPel            : No\nFormat settings, GMC             : No warpoints\nFormat settings, Matrix          : Default\nCodec ID                         : XVID\nCodec ID/Hint                    : XviD\nDuration                         : 2h 3mn\nBit rate                         : 307 Kbps\nWidth                            : 570 pixels\nHeight                           : 240 pixels\nDisplay aspect ratio             : 2.35\nFrame rate                       : 23.976 fps\nResolution                       : 8 bits\nColorimetry                      : 4:2:0\nScan type                        : Progressive\nBits/(Pixel*Frame)               : 0.094\nStream size                      : 271 MiB\nWriting library                  : XviD 1.1.2 (UTC 2006-11-01)\n\nAudio\nFormat                           : MPEG Audio\nFormat version                   : Version 1\nFormat profile                   : Layer 3\nCodec ID                         : 55\nCodec ID/Hint                    : MP3\nDuration                         : 2h 3mn\nBit rate mode                    : Constant\nBit rate                         : 32.0 Kbps\nChannel(s)                       : 2 channels\nSampling rate                    : 44.1 KHz\nResolution                       : 16 bits\nStream size                      : 60.7 MiB\nWriting library                  : LAME3.98\n\nDOWNLOAD SAMPLES TO SEE VIDEO QUALITY&lt;\nITS WAY BTR THAN OTHER VIDEOS ON NET&lt;","torrent":{"xt":"urn:btih:510e2530962fedbf04a61cddc39c3d32dda62358","amp;dn":"Avan.Ivan.240p.New.LotusFiveStar.DVDRIP.","amp;tr":["udp%3A%2F%2Ftracker.openbittorrent.com%3A80","udp%3A%2F%2Fopen.demonii.com%3A1337","udp%3A%2F%2Ftracker.coppersurfer.tk%3A6969","udp%3A%2F%2Fexodus.desync.com%3A6969"],"infoHash":"510e2530962fedbf04a61cddc39c3d32dda62358","infoHashBuffer":{"type":"Buffer","data":[81,14,37,48,150,47,237,191,4,166,28,221,195,156,61,50,221,166,35,88]},"announce":[],"urlList":[]}}